<?xml version="1.0" encoding="utf-8"?>
<!-- Generator: Adobe Illustrator 25.4.1, SVG Export Plug-In . SVG Version: 6.00 Build 0)  -->
<svg version="1.1" id="Слой_1" xmlns="http://www.w3.org/2000/svg" xmlns:xlink="http://www.w3.org/1999/xlink" x="0px" y="0px"
	 viewBox="0 0 515.14 429.1" style="enable-background:new 0 0 515.14 429.1;" xml:space="preserve">
<style type="text/css">
	.st0{fill:#070605;}
	.st1{fill:#EC2425;}
	.st2{fill:#100F0E;}
	.st3{fill:#0F0E0E;}
	.st4{fill:#110F0F;}
	.st5{fill:#111010;}
	.st6{fill:#EE2A26;}
	.st7{fill:#284292;}
	.st8{fill:#EE2B26;}
	.st9{fill:#151313;}
	.st10{fill:#294393;}
	.st11{fill:#161514;}
	.st12{fill:#2A4393;}
	.st13{fill:#171615;}
	.st14{fill:#EE2E27;}
	.st15{fill:#EE2F27;}
	.st16{fill:#1B1A1A;}
	.st17{fill:#2B4493;}
	.st18{fill:#EE3128;}
	.st19{fill:#242222;}
	.st20{fill:#222020;}
	.st21{fill:#EF3C2C;}
	.st22{fill:#314895;}
	.st23{fill:#244090;}
	.st24{fill:#3E9846;}
	.st25{fill:#F4E919;}
</style>
<path class="st0" d="M261.5,229.09c3.27-10.07,5.64-20.44,10.27-30.04c2.99-0.02,6,0.21,8.96-0.09c14.97-1.49,29.84,0.09,44.74,1.06
	c6.26,0.41,12.21,2.9,18.89,2.87c10.35-32.03,20.66-63.93,31.11-96.28c-12.17-1.63-23.07-3.71-34.2-4.25
	c-12.99-0.62-25.87,0.52-38.77,1.63c0.26-5.24,2.61-9.9,4.13-14.78c2.66-8.53,5.48-17.02,8.07-25c2.15-1.3,3.84-1.08,5.49-1.07
	c22.45,0.25,44.86,1.18,67.13,4.29c48.1,6.73,89.68,26.95,124.94,60.27c0.6,0.57,1.2,1.16,1.69,1.82c0.39,0.52,0.62,1.17,1.17,2.25
	c-31.93,98.65-63.97,197.64-96.23,297.31c-3.2-3.04-5.99-5.75-8.84-8.39c-19.69-18.32-42.02-32.3-67.19-42
	c-25.71-9.91-52.36-14.45-79.71-15.97c-13.46-0.75-26.9-1.03-40.35,0.05c-0.95,0.08-1.92,0.01-2.76,0.01
	c-1.42-2.55-0.19-4.52,0.46-6.5c3.28-10.1,6.64-20.18,9.92-30.29c0.55-1.69,0.8-3.47,1.19-5.21c0.38,0.06,0.77,0.13,1.15,0.19
	c2.11,2.07,4.7,0.85,7.04,0.91c15.77,0.37,31.6-1.12,47.32,1.06c5.37,0.75,10.65,2.08,16.89,3.32c10.35-32.03,20.6-63.77,31-95.95
	c-20.9-3.76-40.98-5.69-61.3-3.55c-3.89,0.41-8.02,0.08-11.5,2.53C262.05,229,261.81,228.93,261.5,229.09z M403.93,111.6
	c-10.53,32.61-20.75,64.26-31,95.98c24.22,6.29,44.11,19.37,65.11,32.12c10.31-31.85,20.41-63.02,30.69-94.8
	C449.33,129.75,428.45,118.1,403.93,111.6z M364.71,234.87c-0.74,1.12-0.98,1.36-1.08,1.66c-9.01,27.72-18.09,55.42-26.9,83.21
	c-1.19,3.76-3.63,7.54-2.33,11.56c23.57,5.63,42.83,19.41,63.8,31.17c10.27-31.8,20.33-62.92,30.47-94.32
	C408.89,252.85,388.1,241.53,364.71,234.87z"/>
<path class="st1" d="M302.51,103.99c12.9-1.12,25.79-2.26,38.77-1.63c11.12,0.53,22.02,2.62,34.2,4.25
	c-10.46,32.36-20.76,64.25-31.11,96.28c-6.69,0.04-12.63-2.46-18.89-2.87c-14.9-0.97-29.78-2.54-44.74-1.06
	c-2.96,0.29-5.97,0.07-8.96,0.09c5.14-18.54,11.63-36.65,17.46-54.97C293.5,130.66,298.07,117.35,302.51,103.99z"/>
<path class="st2" d="M295.41,107.84c-4.4,13.7-8.5,26.44-12.7,39.53c-13.97,1.68-27.91,3.36-42.67,5.14
	c3.38-13.67,8.36-26.18,12.25-39.56C266.5,111.27,280.43,109.62,295.41,107.84z"/>
<path class="st2" d="M240.55,277.31c-4.38,13.63-8.45,26.33-12.68,39.49c-14.23,1.6-28.15,3.16-42.97,4.83
	c4.37-13.59,8.42-26.17,12.61-39.18C211.55,280.16,225.49,278.9,240.55,277.31z"/>
<path class="st3" d="M238.62,155.41c14.22-1.68,27.98-3.31,43.02-5.09c-4.43,13.78-8.54,26.58-12.73,39.6
	c-14.14,1.65-27.91,3.25-42.97,5.01C230.4,181.03,234.5,168.24,238.62,155.41z"/>
<path class="st3" d="M254.26,235.01c-4.28,13.26-8.38,25.96-12.64,39.17c-14.27,1.7-28.33,3.38-43.03,5.13
	c4.36-13.55,8.47-26.29,12.63-39.23C220.68,237.72,252.37,235.01,254.26,235.01z"/>
<path class="st3" d="M212.54,237.34c3.56-13.53,8.19-26.06,12.33-39.41c13.97-1.66,28.06-3.33,43.02-5.1
	c-4.37,13.57-9,27.39-13.1,40.12C252.79,233.44,222.09,236.24,212.54,237.34z"/>
<path class="st4" d="M226.62,319.74c-4.46,13.84-8.51,26.39-12.62,39.15c-14.08,1.67-27.82,3.31-42.54,5.06
	c4.35-13.56,8.38-26.11,12.56-39.13C197.9,323.17,211.66,321.53,226.62,319.74z"/>
<path class="st2" d="M308.8,65.59c-4.1,12.81-7.89,24.64-11.67,36.47c-0.63,1.96-2.05,3.01-4.01,3.24
	c-12.53,1.43-25.07,2.82-37.61,4.2c-0.28,0.03-0.6-0.22-1.54-0.6c4.03-12.51,8.08-25.07,12.26-38.05
	C280.15,68.49,293.95,67.33,308.8,65.59z"/>
<path class="st4" d="M209.82,98.72c3.05-11.19,6.48-21.49,10.11-31.81c13.42-0.89,26.44-1.75,40.23-2.66
	c-3.6,11.22-6.93,21.59-10.3,32.09C236.47,97.69,223.5,98.61,209.82,98.72z"/>
<path class="st5" d="M167,352.33c-13.35,0.8-26.04,1.56-39.71,2.38c2.4-11.21,6.6-21.35,9.87-32.3c13.31-0.81,26.31-1.61,39.94-2.44
	C174.31,331.06,170.53,341.37,167,352.33z"/>
<path class="st6" d="M232.03,150.29c-3.5,10.95-6.77,21.16-10.22,31.94c-13.23,0.74-26.18,1.47-39.85,2.24
	c3.65-11.14,6.98-21.29,10.43-31.83C205.45,151.87,218.28,151.11,232.03,150.29z"/>
<path class="st7" d="M180,311.7c-13.22,0.8-25.93,1.57-39.54,2.39c2.68-11.14,6.67-21.19,9.86-31.84c13.2-0.86,26.04-1.7,39.88-2.61
	C186.66,290.77,183.38,301.07,180,311.7z"/>
<path class="st5" d="M178.12,196.38c13.43-0.21,25.92-1.9,39.53-1.69c-3.47,10.81-6.68,20.8-9.99,31.08
	c-13.19,0.83-26.05,1.63-39.83,2.5C171.39,217.25,174.72,206.93,178.12,196.38z"/>
<path class="st7" d="M164.73,238.67c13.13-0.8,25.87-1.57,39.48-2.4c-3.62,11.16-6.87,21.16-10.19,31.39
	c-13.17,0.8-25.84,1.58-39.21,2.39C157.58,259.11,161.13,249.07,164.73,238.67z"/>
<path class="st8" d="M196.4,142.26c2.26-10.94,6.2-20.85,9.54-31.15c13.01-0.86,25.66-1.69,39.13-2.58
	c-2.5,11.14-6.56,21.02-9.65,31.44C222.41,140.73,209.77,141.47,196.4,142.26z"/>
<path class="st9" d="M180.77,55.77c10.93,0,21.34,0,32.38,0c-1.72,8.34-4.79,16.54-8.01,25.4c-10.74,0-21.28,0-32.43,0
	C174.73,72.85,177.74,64.74,180.77,55.77z"/>
<path class="st10" d="M145.07,265.75c-2.05,9.01-5.27,16.93-7.7,25.14c-11.07,2.08-21.8-0.08-33.4,2.36
	c3.15-9.59,5.81-17.69,8.55-26.03C123.43,266.72,133.93,266.25,145.07,265.75z"/>
<path class="st6" d="M178.33,164.19c-10.81,2.11-21.58,0.85-33.11,2.36c2.82-8.98,5.34-17,8.06-25.63
	c10.55-0.53,21.24-1.07,32.92-1.66C183.48,147.87,180.98,155.8,178.33,164.19z"/>
<path class="st9" d="M122.74,334.78c-10.69,0.1-20.88,1.61-32.17,0.75c2.62-8.34,5.11-16.27,7.61-24.22
	c10.57-1.37,20.97-1.05,32.22-1.71C128.75,318.67,125.52,326.63,122.74,334.78z"/>
<path class="st11" d="M171.83,183.19c-2.52,7.98-5,15.8-7.49,23.67c-5.5,1.28-10.79,1.27-16.07,1.3
	c-5.09,0.03-10.18,0.01-16.22,0.01c1.81-8.32,4.98-16.33,7.81-24.98C150.54,183.19,160.88,183.19,171.83,183.19z"/>
<path class="st12" d="M158.36,224.78c-2.79,8.77-5.23,16.46-7.68,24.18c-10.87,1.22-21.34,2.09-32.31,1.54
	c2-8.31,4.83-15.86,7.52-24.04C136.32,224.85,146.86,225.51,158.36,224.78z"/>
<path class="st8" d="M159.58,123.81c1.75-8.93,4.96-16.69,7.64-25.2c10.65,0,21.01,0,32,0c-2.51,7.82-5.01,15.63-7.5,23.36
	C180.95,123.89,170.5,122.67,159.58,123.81z"/>
<path class="st11" d="M92.66,294.18c-2.7,8.17-4.31,15.56-7.68,22.53c-9.29,0.44-18.31,0.87-28.16,1.33
	c2.58-7.94,4.86-14.95,7.18-22.08C73.52,294.31,82.72,295.13,92.66,294.18z"/>
<path class="st13" d="M139.74,62.54c2.44-7.48,4.64-14.2,7-21.45c9.09-0.32,17.89-1.23,27.23-0.84c-1.1,7.58-4.06,14.04-6.34,21.57
	C158.64,61.92,149.66,62.99,139.74,62.54z"/>
<path class="st14" d="M112.45,148.57c1.59-7.97,4.51-14.62,6.75-22.03c8.98,0,17.8,0,27.17,0c-1.82,7.34-4.06,14.32-6.92,21.37
	C130.53,147.93,121.86,149.08,112.45,148.57z"/>
<path class="st10" d="M91.73,212.32c9.11-0.11,17.79-1.53,27.29-0.79c-2.35,7.34-4.56,14.2-6.85,21.35
	c-9.09,0.43-17.82,0.85-27.27,1.29C86.35,226.32,88.99,219.37,91.73,212.32z"/>
<path class="st9" d="M126,189.61c-9.26,0-17.99,0-27.11,0c1.91-7.14,4.06-14.19,6.81-20.94c9.18-0.52,17.76-1.01,27.2-1.55
	C131.64,175.07,128.8,181.9,126,189.61z"/>
<path class="st12" d="M98.61,274.05c-9.24,0.04-17.8,1.63-26.94,0.74c1.28-7.1,4.06-13.59,6.25-20.73
	c8.88-1.2,17.79-0.91,27.53-1.45C103.65,260.26,101.25,267.02,98.61,274.05z"/>
<path class="st15" d="M160.7,83.12c-2.44,7.56-4.62,14.3-6.75,20.88c-9.34,1.97-18.33,0.84-28.24,2.36
	c2.5-7.77,4.7-14.61,6.99-21.71C141.85,84.15,150.71,83.67,160.7,83.12z"/>
<path class="st16" d="M27.01,295.57c2.05-6.35,3.96-12.25,5.89-18.23c7.8-1.48,15.37-1.49,23.53-2.02
	c-1.17,6.81-3.62,12.65-5.73,18.98C42.97,295.42,35.35,296.04,27.01,295.57z"/>
<path class="st17" d="M54.95,210.02c2.16-6.72,4.11-12.79,6.11-19.03c7.47-0.34,14.69-0.66,22.47-1.01
	c-0.39,6.59-3.46,11.96-4.95,18.14C70.91,209.6,63.24,209.5,54.95,210.02z"/>
<path class="st13" d="M98.07,146.17c-1.24,6.58-3.66,12.17-5.52,18.54c-7.37,0.46-14.72,0.93-22.87,1.44
	c1.21-6.78,3.5-12.64,5.66-18.74C82.98,146.99,90.35,146.59,98.07,146.17z"/>
<path class="st15" d="M102.6,63.99c7.74-0.38,14.81-0.72,22.55-1.1c-1.67,6.48-3.61,12.34-5.96,18.37
	c-7.46,0.38-14.66,0.75-22.42,1.14C98.03,75.84,100.14,70.05,102.6,63.99z"/>
<path class="st18" d="M105.16,124.45c-7.6-0.49-14.6,1.66-22.28,0.5c1.27-5.92,3.23-11.44,5.42-17.21
	c7.15-2.37,14.64-0.58,22.83-2.23C109.75,112.46,107.57,118.19,105.16,124.45z"/>
<path class="st17" d="M41.69,253.06c1.33-7.02,3.34-12.73,5.7-18.6c7.26-0.54,14.4-1.69,22.18-0.84c-0.94,6.2-3.27,11.62-5.12,17.13
	C57.12,253.18,49.75,251.25,41.69,253.06z"/>
<path class="st13" d="M133.37,37.44c-7.91,0.42-15,0.8-22.86,1.22c1.95-6.31,3.69-11.95,5.5-17.81c7.57-1.61,15.14-1.48,23.09-1.42
	C137.69,25.92,135.84,31.67,133.37,37.44z"/>
<path class="st19" d="M41.22,141.15c0.85-4.89,2.45-8.66,3.86-12.77c4.92,0,9.66,0,14.84,0c0.37,4.06-1.52,7.67-3.05,11.62
	C51.94,141.92,46.83,140.85,41.22,141.15z"/>
<path class="st20" d="M0,269.08c0.57-4.87,2.29-8.63,3.67-12.65c5.1-0.44,10.03-0.52,15.18-0.09c-0.54,4.18-1.54,7.95-3.82,11.79
	C10.38,269.18,5.38,268.21,0,269.08z"/>
<path class="st19" d="M83,11.78c0.69-3.95,1.86-7.49,3.56-11.11c4.86-0.8,9.72-0.83,15.03-0.34c-0.75,4.15-1.61,7.78-3.91,11.46
	C93.04,11.78,88.19,11.78,83,11.78z"/>
<path class="st18" d="M84.75,53.04c-5.19,0.31-9.92,1.06-15.05,0.51c0.7-4.35,2.24-8.13,3.83-12.13c4.7,0,9.29,0,14.22,0
	C88.29,45.65,86.03,49.03,84.75,53.04z"/>
<path class="st21" d="M55.55,97.28c0.49-3.99,2.15-7.38,3.23-11.22c4.91,0,9.62,0,14.64,0c0.11,4.07-1.57,7.52-3.16,11.1
	C65.26,97.67,60.52,97.55,55.55,97.28z"/>
<path class="st22" d="M31.27,171.52c4.93-0.27,9.65-0.39,14.51,0.06c-0.18,4.1-1.56,7.55-3.08,10.98
	c-4.82,1.03-9.43,0.35-14.58,0.59C28.03,178.87,30.13,175.39,31.27,171.52z"/>
<path class="st12" d="M16.85,215.25c5.34-0.39,10.09-0.63,15,0.01c-0.62,3.83-1.54,7.3-3.45,10.72c-4.67,0.79-9.4,0.48-14.33,0.27
	C14.14,222.29,16.05,219.12,16.85,215.25z"/>
<path class="st23" d="M232.78,320.98c-0.38-0.06-0.77-0.13-1.15-0.19c5.92-18.55,11.77-37.12,17.8-55.63
	c3.92-12.05,7.28-24.3,12.07-36.07c0.31-0.16,0.55-0.09,0.73,0.21c-2.5,8.06-4.91,16.15-7.51,24.18
	C247.44,275.99,240.1,298.48,232.78,320.98z"/>
<path class="st24" d="M403.93,111.6c24.52,6.5,45.4,18.15,64.81,33.31c-10.29,31.77-20.38,62.95-30.69,94.8
	c-21.01-12.75-40.89-25.83-65.11-32.12C383.18,175.85,393.4,144.21,403.93,111.6z"/>
<path class="st25" d="M364.71,234.87c23.39,6.66,44.18,17.98,63.96,33.28c-10.14,31.39-20.19,62.51-30.47,94.32
	c-20.97-11.76-40.23-25.54-63.8-31.17c-1.31-4.02,1.14-7.8,2.33-11.56c8.8-27.79,17.89-55.48,26.9-83.21
	C363.73,236.23,363.98,235.99,364.71,234.87z"/>
<path class="st23" d="M232.78,320.98c7.32-22.5,14.67-44.99,21.94-67.5c2.59-8.03,5.01-16.12,7.51-24.18
	c3.47-2.45,7.61-2.12,11.5-2.53c20.31-2.14,40.4-0.21,61.3,3.55c-10.4,32.19-20.65,63.92-31,95.95c-6.23-1.25-11.52-2.58-16.89-3.32
	c-15.72-2.18-31.54-0.69-47.32-1.06C237.48,321.83,234.89,323.05,232.78,320.98z"/>
</svg>
